# AST/ASF file generated using VICON BodyLanguage
# -----------------------------------------------
:version 1.10
:name VICON
:units
  mass 1.0
  length 0.45
  angle deg
:documentation
   .ast/.asf automatically generated from VICON data using
   VICON BodyBuilder and BodyLanguage model FoxedUp or BRILLIANT.MOD
:root
   order TX TY TZ RX RY RZ
   axis XYZ
   position 0 0 0  
   orientation 0 0 0 
:bonedata
  begin
     id 1 
     name lhipjoint
     direction 0.655637 -0.713449 0.247245 
     length 2.52691 
     axis 0 0 0  XYZ
  end
  begin
     id 2 
     name lfemur
     direction 0.34202 -0.939693 0  
     length 7.59371  
     axis 0 0 20  XYZ
    dof rx ry rz
    limits (-160.0 20.0)
           (-70.0 70.0)
           (-60.0 70.0)
  end
  begin
     id 3 
     name ltibia
     direction 0.34202 -0.939693 0   
     length 7.28717   
     axis 0 0 20   XYZ
    dof rx
    limits (-10.0 170.0)
  end
  begin
     id 4 
     name lfoot
     direction 0.0886837 -0.243657 0.965798   
     length 2.2218   
     axis -90 7.62852e-016 20   XYZ
    dof rx rz
    limits (-45.0 90.0)
           (-70.0 20.0)
  end
  begin
     id 5 
     name ltoes
     direction 1.53547e-011 -4.22004e-011 1   
     length 1.11249   
     axis -90 7.62852e-016 20   XYZ
    dof rx
    limits (-90.0 20.0)
  end
  begin
     id 6 
     name rhipjoint
     direction -0.645062 -0.722004 0.250209   
     length 2.49697  
     axis 0 0 0  XYZ 
  end
  begin
     id 7 
     name rfemur
     direction -0.34202 -0.939693 0   
     length 7.58734   
     axis 0 0 -20   XYZ
    dof rx ry rz
    limits (-160.0 20.0)
           (-70.0 70.0)
           (-70.0 60.0)
  end
  begin
     id 8 
     name rtibia
     direction -0.34202 -0.939693 0   
     length 7.21538   
     axis 0 0 -20   XYZ
    dof rx
    limits (-10.0 170.0)
 end
 begin
     id 9 
     name rfoot
     direction -0.102907 -0.282735 0.953662   
     length 2.23735  
     axis -90 -7.62852e-016 -20   XYZ
    dof rx rz
    limits (-45.0 90.0)
           (-20.0 70.0)
  end
  begin
     id 10 
     name rtoes
     direction -1.5354e-011 -4.21751e-011 1   
     length 1.11569   
     axis -90 -7.62852e-016 -20   XYZ
    dof rx
    limits (-90.0 20.0)
  end
  begin
     id 11 
     name lowerback
     direction 0.00952301 0.997604 -0.0685217   
     length 2.05943   
     axis 0 0 0   XYZ
    dof rx ry rz
    limits (-20.0 45.0)
           (-30.0 30.0)
           (-30.0 30.0)
  end
  begin
     id 12 
     name upperback
     direction 0.00494399 0.999577 -0.0286701   
     length 2.06523   
     axis 0 0 0   XYZ
    dof rx ry rz
    limits (-20.0 45.0)
           (-30.0 30.0)
           (-30.0 30.0)
  end
  begin
     id 13 
     name thorax
     direction 0.000729686 0.999992 0.00388603   
     length 2.06807   
     axis 0 0 0   XYZ
    dof rx ry rz
    limits (-20.0 45.0)
           (-30.0 30.0)
           (-30.0 30.0)
  end
  begin
     id 14 
     name lowerneck
     direction 0.00452882 0.995459 0.0950816   
     length 1.57426   
     axis 0 0 0   XYZ
    dof rx ry rz
    limits (-20.0 45.0)
           (-30.0 30.0)
           (-30.0 30.0)
  end
  begin
     id 15 
     name upperneck
     direction 0.021922 0.997711 -0.0639762   
     length 1.56399   
     axis 0 0 0   XYZ
    dof rx ry rz
    limits (-20.0 45.0)
           (-30.0 30.0)
           (-30.0 30.0)
  end
  begin
     id 16
     name head
     direction 0.008024 0.999444 -0.0323691  
     length 1.6265  
     axis 0 0 0   XYZ
    dof rx ry rz
    limits (-20.0 45.0)
           (-30.0 30.0)
           (-30.0 30.0)
  end
  begin
     id 17 
     name lclavicle
     direction 0.967826 0.247107 -0.0474446  
     length 3.6598  
     axis 0 0 0   XYZ
    dof ry rz
    limits (-20.0 10.0)
           (0.0 20.0)
  end
  begin
     id 18 
     name lhumerus
     direction 1 -4.48971e-011 -2.90544e-027   
     length 4.86513   
     axis 180 -30 -90   XYZ
    dof rx ry rz
    limits (-60.0 90.0)
           (-90.0 90.0)
           (-90.0 90.0)
  end
  begin
     id 19
     name lradius
     direction 1 -4.48958e-011 1.79638e-026   
     length 3.35554   
     axis 180 -30 -90   XYZ
    dof rx
    limits (-10.0 170.0)
  end
  begin
     id 20
     name lwrist
     direction 1 -4.48952e-011 3.34345e-026   
     length 1.67777   
     axis -2.22354e-014 90 90   XYZ
    dof ry
    limits (-180.0 0.0)
 end
  begin
     id 21 
     name lhand
     direction 1 -4.49055e-011 6.6869e-026   
     length 0.661175   
     axis -4.26681e-014 90 90   XYZ
    dof rx rz
    limits (-90.0 90.0)
           (-45.0 45.0)
  end
  begin
     id 22 
     name lfingers
     direction 1 -4.48731e-011 1.33738e-025   
     length 0.533057   
     axis -8.53362e-014 90 90   XYZ
    dof rx
    limits (0.0 90.0)
  end
  begin
     id 23
     name lthumb
     direction 0.707107 -6.35005e-011 0.707107   
     length 0.765366   
     axis -90 45 2.85299e-015   XYZ
    dof rx rz
    limits (-45.0 45.0)
           (-45.0 45.0)
  end
  begin
     id 24 
     name rclavicle
     direction -0.973174 0.211421 -0.0907389   
     length 3.59444  
     axis 0 0 0   XYZ 
    dof ry rz
    limits (-10.0 20.0)
           (-20.0 0.0)
  end
  begin
     id 25 
     name rhumerus
     direction -1 -4.48964e-011 1.56311e-027  
     length 5.02649   
     axis 180 30 90   XYZ
    dof rx ry rz
    limits (-90.0 60.0)
           (-90.0 90.0)
           (-90.0 90.0)
  end
  begin
     id 26 
     name rradius
     direction -1 -4.48948e-011 2.01724e-026   
     length 3.36431   
     axis 180 30 90   XYZ
    dof rx
    limits (-10.0 170.0)
  end
  begin
     id 27 
     name rwrist
     direction -1 -4.49008e-011 3.34345e-026   
     length 1.68216   
     axis -2.22354e-014 -90 -90   XYZ
    dof ry
    limits (-180.0 0.0)
  end
  begin
     id 28
     name rhand
     direction -1 -4.49013e-011 6.6869e-026   
     length 0.730406   
     axis -4.26681e-014 -90 -90   XYZ
    dof rx rz
    limits (-90.0 90.0)
           (-45.0 45.0)
  end
  begin
     id 29
     name rfingers
     direction -1 -4.48867e-011 1.33738e-025   
     length 0.588872   
     axis -8.53362e-014 -90 -90   XYZ
    dof rx
    limits (0.0 90.0)
  end
  begin
     id 30
     name rthumb
     direction -0.707107 -6.34907e-011 0.707107   
     length 0.845506   
     axis -90 -45 -2.85299e-015   XYZ
    dof rx rz
    limits (-45.0 45.0)
           (-45.0 45.0)
  end
:hierarchy
  begin
    root lhipjoint rhipjoint lowerback
    lhipjoint lfemur
    lfemur ltibia
    ltibia lfoot
    lfoot ltoes
    rhipjoint rfemur
    rfemur rtibia
    rtibia rfoot
    rfoot rtoes
    lowerback upperback
    upperback thorax
    thorax lowerneck lclavicle rclavicle
    lowerneck upperneck
    upperneck head
    lclavicle lhumerus
    lhumerus lradius
    lradius lwrist
    lwrist lhand lthumb
    lhand lfingers
    rclavicle rhumerus
    rhumerus rradius
    rradius rwrist
    rwrist rhand rthumb
    rhand rfingers
  end

#!OML:ASF H:\Terrain\Patient Classification 1\Takeo\Monday\TakeoMonday.ASF
:FULLY-SPECIFIED
:DEGREES
195
root 10.7193 14.5121 0.712205 10.4749 5.24071 3.10382
lowerback 29.0896 -1.78309 -3.00683
upperback 4.7202 -3.29901 -1.13221
thorax -10.6451 -1.41829 1.67096
lowerneck -18.5011 -0.600017 -0.526996
upperneck -22.0768 -0.824264 -0.512944
head -4.36984 -0.354416 -0.101213
rclavicle -2.46493e-014 -1.15295e-014
rhumerus -43.9615 14.7183 -91.3758
rradius 57.5981
rwrist -36.8927
rhand -37.5603 21.7779
rfingers 7.12502
rthumb -10.6152 -7.93403
lclavicle -2.46493e-014 -1.15295e-014
lhumerus -18.1157 -28.3246 67.7908
lradius 53.4773
lwrist 14.3987
lhand -28.3144 15.9949
lfingers 7.12502
lthumb -1.68953 45.968
rfemur -54.3588 6.16414 18.8402
rtibia 90.9317
rfoot -31.5019 -17.9559
rtoes -15.7939
lfemur -51.5597 -3.17723 -26.4953
ltibia 85.0507
lfoot -32.6742 11.3948
ltoes -5.42537
196
root 10.7354 14.384 0.671593 11.3801 5.24057 3.64396
lowerback 29.3665 -1.81899 -3.13382
upperback 4.56287 -3.42667 -1.35919
thorax -10.9691 -1.46519 1.54803
lowerneck -18.6545 -0.699805 -1.06182
upperneck -22.1496 -0.807779 -0.0453117
head -4.37059 -0.313658 0.150439
rclavicle 1.98785e-014 -3.97569e-015
rhumerus -43.0966 15.1441 -91.7868
rradius 57.5316
rwrist -36.1526
rhand -37.1637 21.5695
rfingers 7.12502
rthumb -10.2326 -8.16159
lclavicle 1.98785e-014 -3.97569e-015
lhumerus -17.0315 -27.6738 68.3429
lradius 53.6102
lwrist 13.5356
lhand -29.5781 14.3902
lfingers 7.12502
lthumb -2.91001 44.3501
rfemur -56.2005 6.18971 17.833
rtibia 92.2283
rfoot -32.11 -17.4566
rtoes -15.2052
lfemur -53.2109 -3.70099 -27.0949
ltibia 86.0949
lfoot -32.6546 12.1628
ltoes -7.44647
197
root 10.758 14.2719 0.64752 12.1316 5.4478 4.06484
lowerback 29.5382 -1.99273 -3.07798
upperback 4.40741 -3.66111 -1.50447
thorax -11.2409 -1.56789 1.44882
lowerneck -18.8863 -0.688174 -1.78019
upperneck -21.7596 -0.588254 0.546969
head -4.17998 -0.162314 0.477923
rclavicle -3.75703e-014 1.63003e-014
rhumerus -42.4919 15.9642 -92.2141
rradius 57.5151
rwrist -34.8916
rhand -36.4973 20.8796
rfingers 7.12502
rthumb -9.58965 -8.88219
lclavicle -3.75703e-014 1.63003e-014
lhumerus -16.4921 -26.9776 69.256
lradius 54.0366
lwrist 13.5673
lhand -29.9715 13.5757
lfingers 7.12502
lthumb -3.28997 43.53
rfemur -57.5391 5.80985 17.0585
rtibia 93.2678
rfoot -33.1971 -16.8451
rtoes -13.0624
lfemur -54.7634 -4.14778 -27.621
ltibia 87.2851
lfoot -33.089 11.9812
ltoes -6.53583
198
root 10.7779 14.1819 0.621581 12.7648 5.89401 4.1139
lowerback 29.8097 -2.23113 -2.65731
upperback 4.26533 -3.84228 -1.46313
thorax -11.5619 -1.65572 1.33763
lowerneck -18.9668 -0.646175 -2.04783
upperneck -21.5402 -0.489455 0.491781
head -4.08371 -0.0906948 0.505336
rclavicle 8.94531e-015 1.59028e-014
rhumerus -41.9781 16.6885 -92.3966
rradius 57.7516
rwrist -33.4327
rhand -35.1096 21.158
rfingers 7.12502
rthumb -8.25053 -8.66085
lclavicle 8.94531e-015 1.59028e-014
lhumerus -16.2591 -26.203 70.4448
lradius 54.7528
lwrist 13.7247
lhand -28.2311 15.4434
lfingers 7.12502
lthumb -1.60909 45.417
rfemur -58.4953 5.15999 16.8787
rtibia 93.9147
rfoot -34.1302 -16.5118
rtoes -11.6829
lfemur -56.3442 -4.51637 -27.7624
ltibia 88.4864
lfoot -33.1945 11.9665
ltoes -7.46166
199
root 10.7908 14.107 0.590377 13.3803 6.22461 3.73391
lowerback 30.0602 -2.38731 -2.13828
upperback 4.18679 -3.85395 -1.21818
thorax -11.7959 -1.66967 1.33649
lowerneck -18.9712 -0.653686 -1.99779
upperneck -21.5342 -0.567494 0.039615
head -4.08101 -0.123469 0.340676
rclavicle 4.37326e-015 1.86858e-014
rhumerus -41.3023 17.2649 -92.3733
rradius 58.0103
rwrist -32.0465
rhand -33.5863 22.3928
rfingers 7.12502
rthumb -6.78026 -7.47861
lclavicle 4.37326e-015 1.86858e-014
lhumerus -15.9925 -25.2667 71.6388
lradius 55.5012
lwrist 13.6484
lhand -27.619 16.2988
lfingers 7.12502
lthumb -1.01795 46.2761
rfemur -59.2732 4.73362 17.2971
rtibia 94.2341
rfoot -34.8193 -16.3717
rtoes -10.9278
lfemur -57.9704 -4.537 -27.4171
ltibia 89.6094
lfoot -32.9167 11.7297
ltoes -8.21948
200
root 10.8013 14.0497 0.563792 13.9507 6.3274 3.73384
lowerback 30.2574 -2.40996 -2.12006
upperback 4.26338 -3.86264 -1.11625
thorax -11.799 -1.67023 1.45212
lowerneck -19.0422 -0.800551 -2.04255
upperneck -21.7558 -0.763891 0.0275215
head -4.15482 -0.217191 0.340548
rclavicle 2.04748e-014 1.98785e-015
rhumerus -40.4769 17.5303 -92.3026
rradius 58.3158
rwrist -30.7843
rhand -32.7055 23.0464
rfingers 7.12502
rthumb -5.92985 -6.85061
lclavicle 2.04748e-014 1.98785e-015
lhumerus -15.4589 -24.462 72.5384
lradius 56.0613
lwrist 13.9422
lhand -29.6688 13.4775
lfingers 7.12502
lthumb -2.99758 43.4362
rfemur -59.9545 4.32266 17.3002
rtibia 94.4929
rfoot -35.6807 -15.5423
rtoes -7.50176
lfemur -59.2562 -4.44044 -27.4919
ltibia 90.4948
lfoot -32.8006 11.054
ltoes -6.00133
201
root 10.8102 14.0122 0.532912 14.4813 6.17827 4.27734
lowerback 30.5342 -2.27405 -2.60492
upperback 4.39804 -3.86154 -1.25114
thorax -11.7587 -1.65114 1.58392
lowerneck -18.4923 -1.03719 -2.23355
upperneck -23.0307 -1.02006 0.45319
head -4.15399 -0.334202 0.499972
rclavicle -1.88845e-014 5.1684e-015
rhumerus -39.7416 17.4882 -92.2506
rradius 58.8297
rwrist -30.0398
rhand -32.3779 22.8418
rfingers 7.12502
rthumb -5.61356 -7.06383
lclavicle -1.88845e-014 5.1684e-015
lhumerus -14.9936 -24.0265 73.3403
lradius 56.7084
lwrist 14.9051
lhand -30.8408 14.3859
lfingers 7.12502
lthumb -4.1294 44.3256
rfemur -60.8588 3.8817 16.7028
rtibia 94.8054
rfoot -35.9189 -14.7374
rtoes -5.51294
lfemur -60.2394 -4.34925 -28.2498
ltibia 91.0595
lfoot -32.4833 11.269
ltoes -5.54164
202
root 10.8221 13.9936 0.500333 14.8555 5.97492 4.37761
lowerback 31.0121 -2.15267 -2.66087
upperback 4.09462 -3.74431 -1.25911
thorax -11.5171 -1.59789 1.49007
lowerneck -17.9814 -1.15874 -2.02935
upperneck -23.9231 -1.25537 0.334768
head -4.50787 -0.457881 0.430154
rclavicle -5.56597e-014 7.15625e-015
rhumerus -39.2441 17.217 -92.2118
rradius 59.4169
rwrist -29.8019
rhand -32.5077 22.5539
rfingers 7.12502
rthumb -5.73897 -7.3484
lclavicle -5.56597e-014 7.15625e-015
lhumerus -14.8292 -23.7379 74.2514
lradius 57.3276
lwrist 15.4848
lhand -31.4767 15.0058
lfingers 7.12502
lthumb -4.74344 44.9327
rfemur -61.7861 3.69994 16.6204
rtibia 95.1054
rfoot -35.4043 -15.0189
rtoes -7.48649
lfemur -61.0763 -4.13911 -28.4946
ltibia 91.447
lfoot -32.0682 11.4145
ltoes -6.26726
203
root 10.8362 13.9923 0.47273 15.205 5.84151 4.16816
lowerback 31.3134 -2.13155 -2.39894
upperback 4.14032 -3.63294 -1.22806
thorax -11.6109 -1.55377 1.3499
lowerneck -17.1314 -1.68605 -3.00754
upperneck -25.1132 -1.58662 2.13432
head -4.97625 -0.604956 1.18263
rclavicle 2.24627e-014 -1.19271e-014
rhumerus -38.8748 16.6081 -92.1838
rradius 59.8827
rwrist -29.802
rhand -32.8741 22.6938
rfingers 7.12502
rthumb -6.09269 -7.19856
lclavicle 2.24627e-014 -1.19271e-014
lhumerus -14.7977 -23.2178 75.1895
lradius 57.56
lwrist 15.6986
lhand -31.7994 15.1502
lfingers 7.12502
lthumb -5.05501 45.0699
rfemur -62.7438 3.60705 16.8668
rtibia 95.4228
rfoot -34.7504 -15.414
rtoes -8.07214
lfemur -61.7804 -3.93284 -28.3336
ltibia 91.6403
lfoot -31.6001 11.4129
ltoes -7.75361
204
root 10.8471 13.9799 0.443631 15.6109 5.60371 4.1245
lowerback 31.6307 -2.0666 -2.39136
upperback 4.18666 -3.55565 -1.24075
thorax -11.6952 -1.51589 1.31182
lowerneck -16.7312 -1.39593 -2.32088
upperneck -25.5418 -1.47002 1.06505
head -5.1919 -0.559667 0.728436
rclavicle -7.35503e-015 -2.0276e-014
rhumerus -38.3457 15.9178 -92.1654
rradius 60.1621
rwrist -30.2502
rhand -33.2397 22.7907
rfingers 7.12502
rthumb -6.44564 -7.09123
lclavicle -7.35503e-015 -2.0276e-014
lhumerus -14.8134 -22.2994 76.0451
lradius 57.776
lwrist 15.6705
lhand -32.1463 15.316
lfingers 7.12502
lthumb -5.39001 45.2275
rfemur -63.6968 3.57562 16.8495
rtibia 95.7149
rfoot -34.2528 -15.2523
rtoes -6.78826
lfemur -62.5064 -3.77311 -28.3474
ltibia 91.7541
lfoot -31.0402 11.6159
ltoes -9.56586
205
root 10.8585 13.9559 0.41818 15.9223 5.43642 4.13787
lowerback 31.9036 -2.04336 -2.37276
upperback 4.3147 -3.5275 -1.29005
thorax -11.6698 -1.5041 1.24305
lowerneck -16.5088 -1.03866 -1.69076
upperneck -25.8623 -1.21696 0.166686
head -5.34286 -0.446447 0.335305
rclavicle 3.77691e-014 -9.54166e-015
rhumerus -37.6959 15.3131 -92.1882
rradius 60.2236
rwrist -31.0064
rhand -33.9883 23.5515
rfingers 7.12502
rthumb -7.16823 -6.30707
lclavicle 3.77691e-014 -9.54166e-015
lhumerus -14.7944 -21.2926 76.777
lradius 57.906
lwrist 15.0616
lhand -31.971 15.7026
lfingers 7.12502
lthumb -5.22076 45.6183
rfemur -64.2232 3.51344 16.7288
rtibia 95.8845
rfoot -33.9691 -14.974
rtoes -6.38184
lfemur -63.1054 -3.82886 -28.3418
ltibia 91.8455
lfoot -30.75 11.2939
ltoes -8.91022
206
root 10.8694 13.9581 0.399498 16.2331 5.3924 4.04177
lowerback 32.074 -2.05795 -2.17769
upperback 4.37804 -3.48305 -1.30415
thorax -11.6828 -1.49072 1.1101
lowerneck -16.1722 -0.866096 -1.44806
upperneck -26.0153 -1.07198 -0.165692
head -5.444 -0.378264 0.188923
rclavicle -3.77691e-014 1.98785e-015
rhumerus -37.1478 14.5697 -92.2322
rradius 60.0609
rwrist -31.8629
rhand -35.1084 25.4393
rfingers 7.12502
rthumb -8.24937 -4.37959
lclavicle -3.77691e-014 1.98785e-015
lhumerus -14.8034 -20.5351 77.5468
lradius 57.5936
lwrist 14.5703
lhand -31.7728 15.9201
lfingers 7.12502
lthumb -5.02937 45.8404
rfemur -64.7933 3.50502 16.6541
rtibia 96.057
rfoot -33.6637 -14.8634
rtoes -6.45772
lfemur -63.556 -3.95138 -28.1783
ltibia 91.7985
lfoot -30.7508 10.7889
ltoes -7.53756
